<?xml version="1.0" standalone="no"?>
<!DOCTYPE svg PUBLIC "-//W3C//DTD SVG 20010904//EN"
 "http://www.w3.org/TR/2001/REC-SVG-20010904/DTD/svg10.dtd">
<svg version="1.0" xmlns="http://www.w3.org/2000/svg"
 width="1891.000000pt" height="1247.000000pt" viewBox="0 0 1891.000000 1247.000000"
 preserveAspectRatio="xMidYMid meet">

<g transform="translate(0.000000,1247.000000) scale(0.100000,-0.100000)"
fill="#000000" stroke="none">
<path d="M81 12457 c-19 -7 -44 -25 -55 -40 l-21 -28 0 -5443 c0 -5226 1
-5443 18 -5469 10 -16 30 -32 45 -38 18 -7 438 -10 1237 -11 1363 0 1269 -6
1305 74 19 42 20 108 20 4704 0 3398 3 4670 11 4693 6 18 15 31 19 29 4 -2
932 -1025 2061 -2273 1130 -1249 2311 -2554 2624 -2900 314 -347 690 -763 836
-925 211 -234 277 -301 320 -325 l54 -30 784 -3 785 -2 52 25 c46 23 178 164
1096 1173 3708 4077 4796 5270 4809 5271 4 1 9 -13 13 -30 3 -17 6 -2145 6
-4729 0 -4459 1 -4699 17 -4719 10 -12 34 -25 53 -29 19 -4 644 -6 1388 -4
l1352 3 0 5520 0 5519 -1914 -2 -1913 -3 -79 -40 c-76 -39 -85 -47 -313 -305
-433 -491 -1001 -1129 -2076 -2335 -1074 -1205 -2511 -2822 -2832 -3186 -222
-251 -255 -271 -347 -206 -25 17 -281 289 -568 602 -287 314 -1004 1094 -1593
1735 -589 641 -1536 1671 -2104 2290 -1330 1447 -1268 1382 -1339 1417 l-57
28 -1830 2 c-1402 2 -1838 -1 -1864 -10z"/>
<path d="M12970 3054 c-100 -17 -145 -31 -220 -66 -162 -77 -294 -242 -350
-438 -28 -96 -38 -307 -20 -418 15 -91 50 -196 92 -270 41 -73 131 -168 202
-214 l59 -38 -486 0 -487 0 0 710 0 710 -91 0 -92 0 7 -532 c3 -293 9 -564 12
-603 l5 -70 -81 154 c-44 84 -129 230 -188 325 -59 94 -187 296 -282 448
l-175 277 -107 1 -108 0 0 -710 0 -710 -345 0 -345 0 0 710 0 710 -91 0 -92 0
7 -517 c3 -285 9 -556 12 -603 l6 -85 -59 115 c-82 157 -159 284 -433 718
l-235 372 -107 0 -108 0 0 -710 0 -710 -345 0 -345 0 0 710 0 710 -95 0 -95 0
0 -710 0 -710 -485 0 -485 0 0 630 0 630 225 0 225 0 0 80 0 80 -540 0 -540 0
0 -80 0 -80 220 0 220 0 0 -630 0 -630 -330 0 -330 0 0 60 0 60 -310 0 -310 0
0 650 0 650 -95 0 -95 0 0 -710 0 -710 -482 0 -481 0 46 31 c91 60 161 167
199 306 21 74 22 102 26 581 l3 502 -95 0 -95 0 -3 -497 c-4 -429 -7 -506 -21
-556 -26 -88 -62 -151 -112 -195 -60 -53 -129 -76 -225 -76 -160 1 -264 90
-317 271 -14 50 -17 127 -21 556 l-3 497 -95 0 -95 0 4 -512 c3 -440 6 -522
21 -577 34 -131 102 -239 189 -302 l40 -29 -226 0 -227 0 0 -85 0 -85 2740 0
2740 0 0 -720 0 -720 108 0 107 1 240 381 c309 490 324 516 412 683 l74 140
-5 -85 c-3 -47 -9 -318 -12 -602 l-7 -518 92 0 91 0 0 720 0 720 2745 0 2745
0 0 85 0 85 -303 2 -304 3 223 625 c123 344 237 662 253 708 l30 82 -102 0
-102 0 -149 -438 c-160 -470 -204 -609 -240 -742 l-23 -85 -12 45 c-54 208
-127 445 -362 1188 l-11 32 -99 0 c-61 0 -99 -4 -99 -10 0 -6 101 -320 225
-699 124 -379 225 -694 225 -700 0 -8 -177 -11 -640 -11 -352 0 -640 2 -640 4
0 2 27 20 59 40 128 79 235 234 283 411 18 67 21 107 22 250 0 157 -2 177 -28
260 -61 199 -172 339 -327 413 -46 22 -105 45 -130 51 -53 12 -201 22 -239 15z
m243 -192 c122 -57 217 -184 264 -352 24 -90 25 -319 0 -410 -73 -273 -273
-427 -506 -391 -146 23 -260 114 -332 266 -54 112 -73 220 -66 364 13 287 133
478 342 548 25 8 76 12 135 10 83 -2 104 -7 163 -35z m-3958 -447 c43 -71 182
-293 307 -493 208 -331 228 -367 228 -407 0 -32 -8 -56 -29 -87 -48 -72 -473
-756 -543 -873 -36 -60 -89 -155 -118 -210 -28 -55 -54 -102 -57 -105 -3 -3
-3 40 1 95 8 124 9 2220 0 2364 l-5 106 68 -130 c38 -71 105 -188 148 -260z
m1750 65 c38 -63 173 -283 302 -487 128 -205 233 -375 233 -378 0 -3 -157 -5
-350 -5 l-350 0 0 473 c0 261 -3 530 -6 598 l-6 124 55 -105 c30 -58 85 -157
122 -220z"/>
</g>
</svg>
